<?xml version="1.0" encoding="utf-8"?>
<!-- Generator: Adobe Illustrator 21.0.2, SVG Export Plug-In . SVG Version: 6.00 Build 0)  -->
<svg version="1.1" id="Lag_1" xmlns="http://www.w3.org/2000/svg" xmlns:xlink="http://www.w3.org/1999/xlink" x="0px" y="0px"
	 viewBox="0 0 405 377" style="enable-background:new 0 0 405 377;" xml:space="preserve">
<style type="text/css">
	.st0{fill:url(#SVGID_1_);stroke:#F9C724;stroke-width:2;stroke-miterlimit:10;}
	.st1{fill:url(#SVGID_2_);stroke:#F9C724;stroke-width:2;stroke-miterlimit:10;}
	.st2{fill:url(#SVGID_3_);stroke:#F9C724;stroke-width:2;stroke-miterlimit:10;}
	.st3{fill:url(#SVGID_4_);}
	.st4{fill:url(#SVGID_5_);stroke:#E4720A;stroke-width:2;stroke-miterlimit:10;}
	.st5{opacity:0.74;fill:#E48F1D;}
	.st6{fill:url(#SVGID_6_);stroke:#F9C724;stroke-width:2;stroke-miterlimit:10;}
	.st7{fill:url(#SVGID_7_);}
	.st8{fill:url(#SVGID_8_);}
	.st9{fill:url(#SVGID_9_);}
	.st10{fill:url(#SVGID_10_);}
	.st11{fill:url(#SVGID_11_);}
	.st12{fill:url(#SVGID_12_);}
	.st13{fill:url(#SVGID_13_);}
	.st14{fill:url(#SVGID_14_);}
	.st15{fill:url(#SVGID_15_);}
	.st16{fill:url(#SVGID_16_);}
	.st17{fill:url(#SVGID_17_);}
	.st18{fill:url(#SVGID_18_);}
	.st19{fill:#FFFFFF;}
	.st20{fill:url(#SVGID_19_);}
	.st21{fill:url(#SVGID_20_);}
	.st22{fill:url(#SVGID_21_);}
</style>
<g id="badeand_1_">
	
		<radialGradient id="SVGID_1_" cx="321.5665" cy="226.3016" r="51.7267" gradientTransform="matrix(0.3512 -0.9363 0.6684 0.2507 57.3838 470.6532)" gradientUnits="userSpaceOnUse">
		<stop  offset="3.770510e-03" style="stop-color:#F2E500"/>
		<stop  offset="0.1899" style="stop-color:#F2DE03"/>
		<stop  offset="0.4643" style="stop-color:#F2CA0B"/>
		<stop  offset="0.7917" style="stop-color:#F2AA18"/>
		<stop  offset="0.9939" style="stop-color:#F29222"/>
	</radialGradient>
	<path class="st0" d="M283.1,204.5c22.9,7.1,49.6-15.4,64.4-35.6c2,15.4-4.7,26.1-12.5,34.2c6.6,0.4,15-9.2,19.6-21.4
		c6,19.9-4.8,37.8-8.8,43c-0.8,26.5-27.5,59.6-46.6,75.8"/>
	
		<radialGradient id="SVGID_2_" cx="224.4477" cy="71.9467" r="43.8137" gradientTransform="matrix(0.9957 -9.232610e-02 8.099963e-02 0.8736 -4.869 29.8183)" gradientUnits="userSpaceOnUse">
		<stop  offset="3.770510e-03" style="stop-color:#F2E500"/>
		<stop  offset="0.13" style="stop-color:#F4D906"/>
		<stop  offset="0.358" style="stop-color:#F8B917"/>
		<stop  offset="0.3841" style="stop-color:#F9B519"/>
		<stop  offset="0.4557" style="stop-color:#F8BB16"/>
		<stop  offset="0.5556" style="stop-color:#F5CE0C"/>
		<stop  offset="0.6498" style="stop-color:#F2E500"/>
		<stop  offset="0.7846" style="stop-color:#F2BC11"/>
		<stop  offset="0.9073" style="stop-color:#F29E1D"/>
		<stop  offset="0.976" style="stop-color:#F29222"/>
	</radialGradient>
	<path class="st1" d="M206.4,65.1c2.9-0.1,14.1,1.9,23.7-5.4c0.4,4.5,0.9,9-5.4,13.4c8.8,0.4,16-2.7,20.6-6
		c1.2,8.4-6.1,17.8-16.3,20.2c2.5,1,4.1,2.6,15.9,0.3c0.4,10.3-13.7,9-13.9,15.8"/>
	
		<radialGradient id="SVGID_3_" cx="194.5494" cy="188.201" r="143.8193" gradientTransform="matrix(1 0 0 0.9569 0 8.1062)" gradientUnits="userSpaceOnUse">
		<stop  offset="0" style="stop-color:#F29222"/>
		<stop  offset="7.236808e-02" style="stop-color:#F29F1C"/>
		<stop  offset="0.3005" style="stop-color:#F2C50D"/>
		<stop  offset="0.4841" style="stop-color:#F2DC03"/>
		<stop  offset="0.599" style="stop-color:#F2E500"/>
		<stop  offset="0.6792" style="stop-color:#F2E002"/>
		<stop  offset="0.7728" style="stop-color:#F2D208"/>
		<stop  offset="0.8731" style="stop-color:#F2BB11"/>
		<stop  offset="0.9775" style="stop-color:#F29A1F"/>
		<stop  offset="1" style="stop-color:#F29222"/>
	</radialGradient>
	<path class="st2" d="M192.4,182.9c0.6,4.6,20.3,3.6,27.4,3.6c10.3,0,28.2,4.8,41.1,8.8c37.2,11.5,52.8,29.4,53.9,61.7
		c1.6,45-36.3,70.9-102.4,70.9c-85.7,0-139.1-19.9-138.7-69.4c0.2-30.3,6.4-47,27.1-64.6c7.2-5.6,17.1-14.9,10.2-23.1
		C98,158,90,140.1,90,120.4c0-39.4,31.9-71.3,71.3-71.3c39.4,0,70.8,31.9,71.3,71.3C233.1,157.7,217.5,166.9,192.4,182.9z"/>
	
		<radialGradient id="SVGID_4_" cx="79.0236" cy="278.9328" r="47.2992" gradientTransform="matrix(0.9805 0.1965 -0.161 0.8036 100.0442 -95.7256)" gradientUnits="userSpaceOnUse">
		<stop  offset="0" style="stop-color:#F2E500"/>
		<stop  offset="0.1944" style="stop-color:#F2E003"/>
		<stop  offset="0.4219" style="stop-color:#F3D20A"/>
		<stop  offset="0.665" style="stop-color:#F5BB16"/>
		<stop  offset="0.8247" style="stop-color:#F6A720"/>
		<stop  offset="0.8402" style="stop-color:#F6A520;stop-opacity:0.9116"/>
		<stop  offset="1" style="stop-color:#F29222;stop-opacity:0"/>
	</radialGradient>
	<circle class="st3" cx="145.8" cy="146.6" r="30.7"/>
	
		<radialGradient id="SVGID_5_" cx="90.8565" cy="119.0301" r="39.883" gradientTransform="matrix(0.8659 0.5002 -0.3822 0.6617 57.6706 -5.1692)" gradientUnits="userSpaceOnUse">
		<stop  offset="0" style="stop-color:#F6A720"/>
		<stop  offset="0.469" style="stop-color:#F6A520"/>
		<stop  offset="0.6379" style="stop-color:#F49E20"/>
		<stop  offset="0.7583" style="stop-color:#F29320"/>
		<stop  offset="0.8549" style="stop-color:#EF8221"/>
		<stop  offset="0.9315" style="stop-color:#EC6E21"/>
		<stop  offset="0.9547" style="stop-color:#EA5C20"/>
	</radialGradient>
	<path class="st4" d="M91.3,108.4c-15.4,23.9-36.6,0.5-41.4,4.9c-8.8,23.1,26.2,47.4,58.2,47.4c8.1-1.9,8.5-9.7,4.9-14.2
		c-4.1-5.1-9.1-6.8-13.1-15.6C96.5,123.6,101.9,110.2,91.3,108.4z"/>
	<path class="st5" d="M270.2,234.1c0,0-3.8,14.2-17.5,21.7c-5.8,3.2-13.5,6.6-13.5,6.6s4.6,1.3,9.9,1.5c5.1,0.2,10.8-0.9,10.8-0.9
		s-2.8,6.7-13.8,10.4c-3.2,1.1-10.2,3.7-10.2,3.7s4,0.9,10.4,0.5c5.1-0.3,11.9-1.9,11.9-1.9s-15.2,14.5-34.2,20.3
		c-21.2,6.4-45.6,5.8-49,5.8c-26.9,0-49.7-20.9-49.7-44.4c0-23.6,16.1-41.3,43-41.3c16.5,0,26.4,11.3,42.4,18
		C227.6,241.2,270.2,234.1,270.2,234.1z"/>
	
		<radialGradient id="SVGID_6_" cx="212.4632" cy="250.425" r="76.8291" gradientTransform="matrix(1 5.842404e-03 -4.864847e-03 0.8327 1.2219 40.6636)" gradientUnits="userSpaceOnUse">
		<stop  offset="3.770510e-03" style="stop-color:#F2E500"/>
		<stop  offset="0.1899" style="stop-color:#F2DE03"/>
		<stop  offset="0.4643" style="stop-color:#F2CA0B"/>
		<stop  offset="0.7917" style="stop-color:#F2AA18"/>
		<stop  offset="0.9939" style="stop-color:#F29222"/>
	</radialGradient>
	<path class="st6" d="M269.9,228.3c0,0-3.7,14.7-17,22.4c-5.7,3.3-13.2,6.8-13.2,6.8s4.5,1.3,9.6,1.5c5,0.2,10.5-0.9,10.5-0.9
		s-2.7,6.9-13.5,10.8c-3.1,1.1-9.9,3.8-9.9,3.8s3.9,1,10.1,0.6c5-0.3,11.6-2,11.6-2s-14.8,15-33.3,20.9c-20.6,6.6-44.4,6-47.6,6
		c-26.2,0-48.3-21.5-48.3-45.9c0-24.4,15.7-42.6,41.9-42.6c16.1,0,25.7,11.7,41.3,18.5C228.4,235.6,269.9,228.3,269.9,228.3z"/>
	
		<radialGradient id="SVGID_7_" cx="202.5979" cy="234.1331" r="64.1029" gradientTransform="matrix(0.9972 7.541696e-02 -2.969301e-02 0.3926 7.5291 126.9339)" gradientUnits="userSpaceOnUse">
		<stop  offset="0" style="stop-color:#FFFFFF;stop-opacity:0"/>
		<stop  offset="2.715150e-03" style="stop-color:#FFFFFF;stop-opacity:0.31"/>
		<stop  offset="0.8563" style="stop-color:#FFFFFF;stop-opacity:4.468137e-02"/>
		<stop  offset="1" style="stop-color:#FFFFFF;stop-opacity:0"/>
	</radialGradient>
	<path class="st7" d="M262.2,233.8c-20.7,34.7-116.8,25-119.2-3.7C171.7,188.4,209.4,253.7,262.2,233.8z"/>
	
		<radialGradient id="SVGID_8_" cx="236.3687" cy="261.7542" r="16.946" gradientTransform="matrix(1 0 0 0.4338 0 148.206)" gradientUnits="userSpaceOnUse">
		<stop  offset="0" style="stop-color:#FFFFFF;stop-opacity:0"/>
		<stop  offset="1.212120e-02" style="stop-color:#FFFFFF;stop-opacity:0.35"/>
		<stop  offset="0.8576" style="stop-color:#FFFFFF;stop-opacity:5.044672e-02"/>
		<stop  offset="1" style="stop-color:#FFFFFF;stop-opacity:0"/>
	</radialGradient>
	<path class="st8" d="M254,260.3c-5.6,10.2-33.4,8.4-34.4,0.1C223.2,253.2,238.9,266.6,254,260.3z"/>
	
		<radialGradient id="SVGID_9_" cx="238.6175" cy="276.0792" r="10.9331" gradientTransform="matrix(0.9707 -0.2404 0.1261 0.5089 -27.803 192.9384)" gradientUnits="userSpaceOnUse">
		<stop  offset="0" style="stop-color:#FFFFFF;stop-opacity:0"/>
		<stop  offset="1.212120e-02" style="stop-color:#FFFFFF;stop-opacity:0.35"/>
		<stop  offset="0.8576" style="stop-color:#FFFFFF;stop-opacity:5.044672e-02"/>
		<stop  offset="1" style="stop-color:#FFFFFF;stop-opacity:0"/>
	</radialGradient>
	<path class="st9" d="M251,273.2c-6.2,9.5-20.9,12.3-23.2,4.3C230.3,269.8,243,278.7,251,273.2z"/>
	
		<radialGradient id="SVGID_10_" cx="167.067" cy="64.6628" r="63.9335" gradientTransform="matrix(1 0 0 1.0433 0 -2.7986)" gradientUnits="userSpaceOnUse">
		<stop  offset="0" style="stop-color:#FFFFFF;stop-opacity:0"/>
		<stop  offset="2.715150e-03" style="stop-color:#FFFFFF;stop-opacity:0.43"/>
		<stop  offset="0.9386" style="stop-color:#FFFFFF;stop-opacity:2.645776e-02"/>
		<stop  offset="1" style="stop-color:#FFFFFF;stop-opacity:0"/>
	</radialGradient>
	<path class="st10" d="M221.5,90.8c0,21.6-22.8,38.7-52.8,38.7c-30,0-52.8-17.5-54.4-39.1c-2-26.7,22.6-37.6,52.6-37.1
		C189,53.7,221.5,76.8,221.5,90.8z"/>
	
		<radialGradient id="SVGID_11_" cx="166.5253" cy="61.284" r="10.622" gradientTransform="matrix(1 0 0 0.3331 0 40.8731)" gradientUnits="userSpaceOnUse">
		<stop  offset="0" style="stop-color:#FFFFFF;stop-opacity:0.72"/>
		<stop  offset="0.8587" style="stop-color:#FFFFFF;stop-opacity:0.1018"/>
		<stop  offset="1" style="stop-color:#FFFFFF;stop-opacity:0"/>
	</radialGradient>
	<ellipse class="st11" cx="166.5" cy="61.3" rx="10.8" ry="3.6"/>
	
		<radialGradient id="SVGID_12_" cx="122.6382" cy="384.8568" r="10.6228" gradientTransform="matrix(0.9713 0.2377 -7.916717e-02 0.3235 92.2244 70.2604)" gradientUnits="userSpaceOnUse">
		<stop  offset="0" style="stop-color:#FFFFFF;stop-opacity:0.72"/>
		<stop  offset="0.8587" style="stop-color:#FFFFFF;stop-opacity:0.1018"/>
		<stop  offset="1" style="stop-color:#FFFFFF;stop-opacity:0"/>
	</radialGradient>
	<path class="st12" d="M191.3,226.5c-0.5,1.9-5.5,2.3-11.3,0.9c-5.8-1.4-10.1-4.1-9.6-6c0.5-1.9,5.5-2.3,11.3-0.9
		C187.5,221.8,191.8,224.5,191.3,226.5z"/>
	
		<radialGradient id="SVGID_13_" cx="580.0436" cy="-99.3382" r="5.5933" gradientTransform="matrix(0.8549 -0.5187 0.1728 0.2847 -149.454 526.0693)" gradientUnits="userSpaceOnUse">
		<stop  offset="0" style="stop-color:#FFFFFF;stop-opacity:0.72"/>
		<stop  offset="0.8587" style="stop-color:#FFFFFF;stop-opacity:0.1018"/>
		<stop  offset="1" style="stop-color:#FFFFFF;stop-opacity:0"/>
	</radialGradient>
	<path class="st13" d="M334.1,194c0.5,0.9-1.2,2.9-3.9,4.6c-2.7,1.6-5.3,2.2-5.8,1.3c-0.5-0.9,1.2-2.9,3.9-4.6
		C331,193.7,333.6,193.1,334.1,194z"/>
	
		<radialGradient id="SVGID_14_" cx="-470.5162" cy="128.248" r="10.6217" gradientTransform="matrix(0.5139 0 0 0.3331 378.4787 85.5343)" gradientUnits="userSpaceOnUse">
		<stop  offset="0" style="stop-color:#FFFFFF;stop-opacity:0.72"/>
		<stop  offset="0.8587" style="stop-color:#FFFFFF;stop-opacity:0.1018"/>
		<stop  offset="1" style="stop-color:#FFFFFF;stop-opacity:0"/>
	</radialGradient>
	<ellipse class="st14" cx="136.7" cy="128.2" rx="5.5" ry="3.6"/>
	
		<radialGradient id="SVGID_15_" cx="-246.5175" cy="238.4096" r="6.6386" gradientTransform="matrix(0.5139 0 0 0.3331 378.4787 159.0061)" gradientUnits="userSpaceOnUse">
		<stop  offset="0" style="stop-color:#FFFFFF;stop-opacity:0.72"/>
		<stop  offset="0.8587" style="stop-color:#FFFFFF;stop-opacity:0.1018"/>
		<stop  offset="1" style="stop-color:#FFFFFF;stop-opacity:0"/>
	</radialGradient>
	<ellipse class="st15" cx="251.8" cy="238.4" rx="3.5" ry="2.2"/>
	
		<radialGradient id="SVGID_16_" cx="-252.8143" cy="261.6778" r="5.017" gradientTransform="matrix(0.5139 0 0 0.3331 378.4787 174.5247)" gradientUnits="userSpaceOnUse">
		<stop  offset="0" style="stop-color:#FFFFFF;stop-opacity:0.72"/>
		<stop  offset="0.8587" style="stop-color:#FFFFFF;stop-opacity:0.1018"/>
		<stop  offset="1" style="stop-color:#FFFFFF;stop-opacity:0"/>
	</radialGradient>
	<ellipse class="st16" cx="248.6" cy="261.7" rx="2.6" ry="1.7"/>
	
		<radialGradient id="SVGID_17_" cx="-865.6426" cy="160.2893" r="7.2674" gradientTransform="matrix(0.3857 0 0 0.377 479.9757 60.116)" gradientUnits="userSpaceOnUse">
		<stop  offset="0" style="stop-color:#FFFFFF;stop-opacity:0.72"/>
		<stop  offset="0.8587" style="stop-color:#FFFFFF;stop-opacity:0.1018"/>
		<stop  offset="1" style="stop-color:#FFFFFF;stop-opacity:0"/>
	</radialGradient>
	<ellipse class="st17" cx="146.1" cy="120.5" rx="2.8" ry="2.8"/>
	
		<radialGradient id="SVGID_18_" cx="131.2682" cy="105.7479" r="8.6312" gradientTransform="matrix(0.95 0.3122 -0.618 1.8807 71.9145 -134.1122)" gradientUnits="userSpaceOnUse">
		<stop  offset="0" style="stop-color:#7F8080"/>
		<stop  offset="0.3353" style="stop-color:#616161"/>
		<stop  offset="0.7655" style="stop-color:#404040"/>
		<stop  offset="1" style="stop-color:#333333"/>
	</radialGradient>
	<path class="st18" d="M140.6,106.6c-2.6,7.9-8.5,13-13.3,11.4c-4.8-1.6-6.6-9.2-4-17.1c2.6-7.9,8.5-13,13.3-11.4
		C141.4,91.1,143.2,98.7,140.6,106.6z"/>
	<ellipse transform="matrix(0.31 -0.9507 0.9507 0.31 -14.0705 195.0353)" class="st19" cx="127.3" cy="107.2" rx="5.7" ry="3.5"/>
	
		<radialGradient id="SVGID_19_" cx="50.1584" cy="362.9214" r="3.8878" gradientTransform="matrix(0.9131 0.4078 -0.2858 0.6401 192.9598 -158.656)" gradientUnits="userSpaceOnUse">
		<stop  offset="0" style="stop-color:#FFFFFF;stop-opacity:0"/>
		<stop  offset="2.715150e-03" style="stop-color:#FFFFFF;stop-opacity:0.43"/>
		<stop  offset="1" style="stop-color:#FFFFFF;stop-opacity:0"/>
	</radialGradient>
	<path class="st20" d="M138.7,95.7c-0.6,1.3-2.7,1.7-4.7,0.8c-2-0.9-3.2-2.7-2.6-4c0.6-1.3,2.7-1.7,4.7-0.8
		C138.1,92.6,139.3,94.4,138.7,95.7z"/>
	
		<radialGradient id="SVGID_20_" cx="41.0204" cy="172.0472" r="3.888" gradientTransform="matrix(0.988 0.1542 -0.1081 0.6926 47.3384 0.9053)" gradientUnits="userSpaceOnUse">
		<stop  offset="0" style="stop-color:#FFFFFF;stop-opacity:0"/>
		<stop  offset="2.715150e-03" style="stop-color:#FFFFFF;stop-opacity:0.43"/>
		<stop  offset="0.86" style="stop-color:#FFFFFF;stop-opacity:6.037375e-02"/>
		<stop  offset="1" style="stop-color:#FFFFFF;stop-opacity:0"/>
	</radialGradient>
	<path class="st21" d="M73.2,127c-0.2,1.4-2.2,2.3-4.3,2c-2.2-0.3-3.8-1.8-3.5-3.2c0.2-1.4,2.2-2.3,4.3-2
		C71.9,124.1,73.4,125.6,73.2,127z"/>
	
		<radialGradient id="SVGID_21_" cx="29.2981" cy="168.8498" r="4.4101" gradientTransform="matrix(0.988 0.1542 -0.1081 0.6926 47.3384 0.9053)" gradientUnits="userSpaceOnUse">
		<stop  offset="0" style="stop-color:#FFFFFF;stop-opacity:0.77"/>
		<stop  offset="1" style="stop-color:#FFFFFF;stop-opacity:0"/>
	</radialGradient>
	<path class="st22" d="M62.5,123.1c-0.3,1.6-2.5,2.7-4.9,2.3c-2.5-0.4-4.3-2-4-3.7c0.3-1.6,2.5-2.7,4.9-2.3
		C61,119.8,62.8,121.4,62.5,123.1z"/>
</g>
</svg>
